<?xml version="1.0" encoding="UTF-8"?>
<svg fill="none" viewBox="0 0 30 30" xmlns="http://www.w3.org/2000/svg">
<path d="m26.118 1.7646h-2.647v2.6471c0 0.52941-0.4412 0.88235-0.8824 0.88235s-0.8823-0.35294-0.8823-0.88235v-2.6471h-14.118v2.6471c0 0.52941-0.44118 0.88235-0.88236 0.88235-0.44117 0-0.88235-0.35294-0.88235-0.88235v-2.6471h-2.6471c-1.3235 0-2.2941 1.1471-2.2941 2.6471v3.1765h28.235v-3.1765c0-1.5-1.5882-2.6471-3-2.6471zm-25.235 7.6765v16.147c0 1.5882 0.97059 2.647 2.3824 2.647h22.941c1.4117 0 3-1.147 3-2.647v-16.147h-28.324zm7.8529 14.823h-2.1176c-0.35294 0-0.70588-0.2647-0.70588-0.7058v-2.2059c0-0.353 0.2647-0.7059 0.70588-0.7059h2.2059c0.35294 0 0.70588 0.2647 0.70588 0.7059v2.2059c-0.08823 0.4411-0.35294 0.7058-0.79411 0.7058zm0-7.9411h-2.1176c-0.35294 0-0.70588-0.2647-0.70588-0.7059v-2.2059c0-0.3529 0.2647-0.7059 0.70588-0.7059h2.2059c0.35294 0 0.70588 0.2647 0.70588 0.7059v2.2059c-0.08823 0.4412-0.35294 0.7059-0.79411 0.7059zm7.0588 7.9411h-2.2059c-0.3529 0-0.7059-0.2647-0.7059-0.7058v-2.2059c0-0.353 0.2647-0.7059 0.7059-0.7059h2.2059c0.3529 0 0.7059 0.2647 0.7059 0.7059v2.2059c0 0.4411-0.2647 0.7058-0.7059 0.7058zm0-7.9411h-2.2059c-0.3529 0-0.7059-0.2647-0.7059-0.7059v-2.2059c0-0.3529 0.2647-0.7059 0.7059-0.7059h2.2059c0.3529 0 0.7059 0.2647 0.7059 0.7059v2.2059c0 0.4412-0.2647 0.7059-0.7059 0.7059zm7.0588 7.9411h-2.2059c-0.3529 0-0.7059-0.2647-0.7059-0.7058v-2.2059c0-0.353 0.2648-0.7059 0.7059-0.7059h2.2059c0.353 0 0.7059 0.2647 0.7059 0.7059v2.2059c0 0.4411-0.2647 0.7058-0.7059 0.7058zm0-7.9411h-2.2059c-0.3529 0-0.7059-0.2647-0.7059-0.7059v-2.2059c0-0.3529 0.2648-0.7059 0.7059-0.7059h2.2059c0.353 0 0.7059 0.2647 0.7059 0.7059v2.2059c0 0.4412-0.2647 0.7059-0.7059 0.7059z" fill="#fff"/>
</svg>
