<?xml version="1.0" encoding="UTF-8"?>
<svg viewBox="0 0 30.201 30.196" xmlns="http://www.w3.org/2000/svg">
<g transform="translate(-823.88 -10704)">
<g transform="translate(823.89 10704)">
<path transform="translate(-67.5 -67.5)" d="M97.694,82.6A15.1,15.1,0,1,0,80.238,97.511V86.961H76.4V82.6h3.833V79.271c0-3.784,2.254-5.874,5.7-5.874a23.21,23.21,0,0,1,3.379.295v3.715h-1.9a2.182,2.182,0,0,0-2.46,2.358V82.6h4.187l-.669,4.364H84.956v10.55A15.1,15.1,0,0,0,97.694,82.6Z" fill="#1877f2"/>
<path transform="translate(-166.24 -132.89)" d="M187.215,152.353l.669-4.364H183.7v-2.832a2.182,2.182,0,0,1,2.46-2.358h1.9v-3.715a23.211,23.211,0,0,0-3.379-.295c-3.449,0-5.7,2.09-5.7,5.874v3.326h-3.833v4.364h3.833V162.9a15.256,15.256,0,0,0,4.718,0V152.35Z" fill="#fff"/>
</g>
</g>
</svg>
