<?xml version="1.0" encoding="UTF-8"?>
<svg viewBox="0 0 30 30" xmlns="http://www.w3.org/2000/svg">
<g transform="translate(-825.15 -10705)">
<g transform="translate(825.15 10705)">
<circle transform="translate(.004)" cx="15" cy="15" r="15" fill="#2867b2"/>
<path transform="translate(296.96 -607)" d="M-285.807,629.349v-9.331h-2.884v9.331Zm0-12.637a1.418,1.418,0,0,0-.417-1.059,1.418,1.418,0,0,0-1.061-.412,1.422,1.422,0,0,0-1.071.406,1.422,1.422,0,0,0-.424,1.064,1.414,1.414,0,0,0,.41,1.054,1.415,1.415,0,0,0,1.051.417h.017a1.423,1.423,0,0,0,1.071-.408,1.423,1.423,0,0,0,.423-1.065Zm4.7,12.637v-5.316a2.161,2.161,0,0,1,.1-.772,1.731,1.731,0,0,1,1.624-1.158,1.72,1.72,0,0,1,1.394.518,1.72,1.72,0,0,1,.469,1.411v5.316h2.9V623.89c0-2.919-1.561-4.285-3.643-4.285a3.152,3.152,0,0,0-2.873,1.6l.021-1.248H-284c.041.893,0,9.387,0,9.387Z" fill="#fff"/>
</g>
</g>
</svg>
