<?xml version="1.0" encoding="UTF-8"?>
<svg viewBox="0 0 27.492 18.012" xmlns="http://www.w3.org/2000/svg">
<path d="M25.433 0H2.059A2.06 2.06 0 0 0 0 2.059v3.945h27.492V2.059A2.06 2.06 0 0 0 25.433 0z" fill="#fab446"/>
<path d="M0 15.953a2.06 2.06 0 0 0 2.059 2.059h23.374a2.06 2.06 0 0 0 2.059-2.059v-3.945H0z" fill="#73af00"/>
<path d="M0 6.004h27.492v6.004H0z" fill="#f5f5f5"/>
<g fill="#41479b">
<path d="M13.746 11.553a2.55 2.55 0 0 1-2.548-2.548 2.55 2.55 0 0 1 2.548-2.548 2.55 2.55 0 0 1 2.548 2.548 2.55 2.55 0 0 1-2.548 2.548zm0-4.622c-1.145 0-2.074.929-2.074 2.074s.929 2.074 2.074 2.074 2.074-.929 2.074-2.074-.929-2.072-2.074-2.073z"/>
<circle cx="13.746" cy="9.006" r=".289"/>
<path d="M13.746 9.049l-.734.074-1.577-.074v-.087l1.577-.074.734.074z"/>
<path d="M13.746 9.049l.734.074 1.577-.074v-.087l-1.577-.074-.734.074z"/>
<path d="M13.702 9.006l-.074-.734.074-1.577h.087l.074 1.577-.074.734z"/>
<path d="M13.702 9.006l-.074.734.074 1.577h.087l.074-1.577-.074-.734z"/>
<path d="M13.715 9.041l-.571-.467-1.063-1.172.061-.061 1.167 1.063.467.571z"/>
<path d="M13.715 9.036l.467.571 1.167 1.063.061-.061-1.063-1.167-.571-.467z"/>
<path d="M13.715 8.975l.467-.571 1.167-1.063.061.061-1.063 1.167-.571.467z"/>
<path d="M13.715 8.975l-.571.467-1.063 1.167.061.061 1.167-1.063.467-.571z"/>
<path d="M13.761 9.046l-.65.349-1.485.535-.033-.08 1.428-.672.706-.212z"/>
<path d="M13.762 9.045l.706-.213 1.428-.672-.033-.08-1.485.535-.65.349z"/>
<path d="M13.705 9.021l-.349-.65-.535-1.485.08-.033.672 1.428.212.706z"/>
<path d="M13.706 9.022l.212.706.672 1.428.08-.033-.535-1.485-.349-.65z"/>
<path d="M13.729 9.045l-.706-.213-1.428-.672.033-.08 1.485.535.65.349z"/>
<path d="M13.729 9.046l.65.349 1.485.535.033-.08-1.428-.672-.706-.212z"/>
<path d="M13.706 8.989l.212-.706.672-1.428.08.033-.535 1.485-.349.65z"/>
<path d="M13.705 8.989l-.349.65-.535 1.485.08.033.672-1.428.212-.706z"/>
</g>
<circle cx="13.746" cy="9.006" r=".39" fill="#f5f5f5"/>
<circle cx="13.746" cy="9.006" r=".234" fill="#41479b"/>
</svg>