<?xml version="1.0" encoding="utf-8"?>
<!-- Generator: Adobe Illustrator 22.0.1, SVG Export Plug-In . SVG Version: 6.00 Build 0)  -->
<svg version="1.1" id="Layer_1" xmlns="http://www.w3.org/2000/svg" xmlns:xlink="http://www.w3.org/1999/xlink" x="0px" y="0px"
	 viewBox="0 0 762.4 236.9" style="enable-background:new 0 0 762.4 236.9;" xml:space="preserve">
<style type="text/css">
	.st0{fill:#4842A8;}
	.st1{fill:#DC2E3D;}
	.st2{clip-path:url(#SVGID_2_);fill:url(#SVGID_3_);}
	.st3{clip-path:url(#SVGID_5_);fill:url(#SVGID_6_);}
</style>
<g>
	<g>
		<path class="st0" d="M247.5,91.2V10c0-2.6,0.9-4.9,2.8-6.7c1.8-1.9,4.1-2.8,6.7-2.8h9.2v33.7h37.4V0.5h19v90.6h-19V50.9h-37.4
			v40.3H247.5z"/>
		<path class="st0" d="M337.6,115.9v-14.5h5c3.5,0,6.3-0.8,8.3-2.5c2-1.7,2.4-4.3,1.2-8l-24.5-69.8h20.3l14.2,49.5l12.4-43.2
			c1.1-4.2,3.9-6.3,8.4-6.3h12.6l-26.9,79.8c-2.1,5.8-4.7,9.9-7.9,12.4c-3.2,2.1-8.3,3.2-15.5,3.2h-1.8h-1.8c-0.5-0.2-1.2-0.3-2-0.4
			C338.8,116,338.1,115.9,337.6,115.9"/>
		<path class="st0" d="M410.6,108c0,2.5-0.9,4.6-2.6,6.3c-1.8,1.8-3.9,2.6-6.3,2.6h-9V51.4c0-12.3,3.6-20.7,10.8-25.2
			c7.2-4.5,15-6.7,23.4-6.7c4.4,0,8.8,0.8,13.3,2.5c4.5,1.7,8,4.1,10.7,7.3c5.3,6.8,7.9,15.6,7.9,26.3c0,11.1-2.6,20-7.9,26.9
			c-5.3,6.7-12,10-20.3,10c-4.4,0-8.3-0.8-11.6-2.4c-3.5-1.8-6.3-4.5-8.4-8.2V108z M440.7,56.4c0-6.8-1.3-12.1-4-15.8
			c-2.6-3.7-6.4-5.5-11.3-5.5c-4.7,0-8.4,1.8-11.1,5.5c-2.5,3.3-3.7,8.6-3.7,15.8c0,6.7,1.3,11.7,4,15c2.6,3.7,6.4,5.5,11.3,5.5
			c4.6,0,8.2-1.8,10.8-5.5C439.4,67.7,440.7,62.7,440.7,56.4"/>
		<path class="st0" d="M512.1,69.6h13.2c-1.9,7.4-5.6,13-11.1,16.9c-5.4,4-12.3,6.1-20.5,6.1c-10,0-17.8-3.3-23.4-9.7
			c-5.6-6.3-8.4-15.4-8.4-27.1c0-11.2,2.7-20,8.2-26.3c5.6-6.5,13.4-9.7,23.5-9.7c10.5,0,18.7,3.2,24.5,9.5
			c5.6,6.5,8.4,15.5,8.4,27.1V58V59c0,0.9-0.1,1.5-0.3,1.8h-45.6c0.2,5.5,1.5,9.5,3.9,12.1c2.3,2.8,5.7,4.2,10.3,4.2
			c3,0,5.5-0.6,7.6-1.8c0.5-0.2,1-0.5,1.5-0.9c0.4-0.4,0.9-0.9,1.4-1.4c0.2-0.5,0.8-1.2,2-2.1C508.4,70,510,69.6,512.1,69.6
			 M480.5,49h26.9c-0.4-4.7-1.6-8.3-3.7-10.5c-2.3-2.5-5.5-3.7-9.7-3.7c-3.9,0-7,1.2-9.5,3.7C482,40.9,480.7,44.4,480.5,49"/>
		<path class="st0" d="M530.6,91.2v-34c0-6.8,1-12.6,3-17.3c2-4.7,4.8-8.4,8.3-11.2c3.3-2.6,7.2-4.6,11.7-5.8
			c4.5-1.2,9.1-1.8,13.8-1.8h1.3h1.3v18.7H564c-5.1,0-8.9,1.2-11.3,3.7c-2.5,2.5-3.7,6.3-3.7,11.6v36.1H530.6z"/>
		<path class="st0" d="M577.7,0.5h9.5c2.5,0,4.6,0.8,6.3,2.5c1.8,1.7,2.6,3.7,2.6,6.2v81.9h-18.4V0.5z"/>
		<path class="st0" d="M605.9,0.5h9.5c2.5,0,4.6,0.9,6.3,2.6c1.8,1.8,2.6,3.9,2.6,6.3V15h-18.4V0.5z M605.9,21.1h9.5
			c2.5,0,4.6,0.9,6.3,2.6c1.8,1.8,2.6,3.9,2.6,6.3v61.1h-18.4V21.1z"/>
		<path class="st0" d="M691.3,91.2H682c-2.6,0-4.8-0.8-6.5-2.5c-1.7-1.7-2.5-3.8-2.5-6.5V46.4c0-4.2-1.3-7.3-3.8-9.2
			c-2.5-1.9-5.4-2.9-8.6-2.9c-3.2,0-6,1-8.4,2.9c-2.5,1.9-3.7,5-3.7,9.2v44.8h-18.4V50.1c0-11.9,3.1-19.9,9.4-24
			c6.2-4,13.1-6.2,20.7-6.6c7.7,0,14.8,2,21.3,6.1c6.5,4,9.7,12.2,9.7,24.5V91.2z"/>
		<path class="st0" d="M717.6,21.1v25.8L740,21.1h22.1l-25,26.9l25.3,43.2h-22.1l-12.9-23.7c-2.6-4.7-4.9-6.8-6.9-6.1
			c-1.9,0.7-2.9,1.7-2.9,3.2v9.7v16.9h-18.4V0.5h9.5c2.5,0,4.6,0.9,6.3,2.6c1.8,1.8,2.6,3.8,2.6,6.1V21.1z"/>
	</g>
	<g>
		<path class="st1" d="M242.9,206.2v-69.9c0-2.3,0.8-4.2,2.4-5.8c1.6-1.6,3.5-2.4,5.8-2.4h7.9v78.1H242.9z"/>
		<path class="st1" d="M316.7,206.2h-7.9c-2.3,0-4.1-0.7-5.6-2.2c-1.4-1.4-2.2-3.3-2.2-5.6v-30.9c0-3.6-1.1-6.3-3.3-7.9
			c-2.2-1.7-4.6-2.5-7.4-2.5c-2.7,0-5.1,0.8-7.3,2.5c-2.1,1.7-3.2,4.3-3.2,7.9v38.6H264v-35.4c0-10.3,2.7-17.2,8.1-20.6
			c5.4-3.5,11.3-5.4,17.8-5.7c6.7,0,12.8,1.7,18.4,5.2c5.6,3.5,8.4,10.5,8.4,21.1V206.2z"/>
		<path class="st1" d="M320.3,206.2V144c0-5.4,1.4-9.5,4.3-12.3c2.7-2.6,7.2-3.9,13.4-3.9c1.5,0,2.7,0.1,3.6,0.2
			c1.7,0,3,0.1,3.9,0.2v12.5h-4.1c-2.1,0-3.6,0.3-4.5,0.9c-0.8,0.6-1.1,1.8-1.1,3.6v4.1h9.8v3.4c0,2.3-0.8,4.1-2.3,5.6
			c-1.5,1.4-3.3,2.2-5.2,2.2h-2.3v45.6H320.3z"/>
		<path class="st1" d="M355.3,200.7c-3.2-2.7-5.4-6.4-6.8-11c-1.4-4.6-2-9.4-2-14.4c0-4.1,0.6-8.2,1.7-12.3
			c1.1-4.1,2.9-7.5,5.3-10.2c3.9-4.5,9-7.2,15.2-8.1c6.2-0.8,11.8-0.3,16.8,1.5c5.7,2.3,10,6.2,12.7,11.8c2.6,5,3.9,10.8,3.9,17.5
			c0,4.8-0.5,9-1.6,12.5c-1.1,3.5-2.4,6.4-4.1,8.8c-3.6,5-8.2,8.1-13.8,9.3c-5,1.4-10,1.5-15.1,0.3
			C362.4,205.4,358.3,203.5,355.3,200.7 M366.2,160.8c-3.2,3.5-4.6,8.7-4.3,15.5c0.3,6.9,1.6,11.7,3.9,14.4c0.9,1.2,2.5,2.2,4.8,3.1
			c2.3,0.8,4.6,0.9,6.9,0.2c2.3-0.7,4.4-2.4,6.2-5.1c1.8-2.7,2.8-7.1,2.9-13.2c0-5.5-0.9-9.5-2.6-12.3c-1.7-2.7-3.7-4.5-6-5.2
			c-2.3-0.8-4.5-0.8-6.8-0.1C368.9,158.9,367.3,159.7,366.2,160.8"/>
		<path class="st1" d="M405.7,181.9h15.9c0.6,4.5,2.3,7.7,5.2,9.5c3,2.1,7.2,3.2,12.5,3.2c4.7,0,8.2-0.8,10.7-2.5
			c2.4-1.7,3.6-4.1,3.6-7.3c0-4.8-6.8-8.8-20.4-11.8l-0.5-0.2l-1.8-0.5c-7.7-1.7-12.9-3.4-15.4-5.2c-3-1.7-5.1-4.1-6.4-7.3
			c-1.5-2.7-2.3-6.2-2.3-10.4c0-7.4,2.6-13.2,7.7-17.5c5.1-4.1,12.6-6.1,22.5-6.1c9.2,0,16.3,2.1,21.3,6.4
			c5.1,4.7,7.9,10.8,8.2,18.4h-9.1c-3.5,0-6-1.6-7.5-4.8c-0.8-1.5-1.8-2.8-3.2-3.9c-2.7-2-6.4-3-11.1-3c-4.5,0-7.8,0.8-9.8,2.5
			c-2.3,1.7-3.4,4-3.4,7c0,4.1,4.4,7.1,13.2,9.1c2.6,0.8,4.5,1.2,5.7,1.4c2.7,0.9,5.1,1.6,7.1,2.2c2,0.5,3.7,0.9,4.9,1.2
			c2.1,0.9,4.2,1.8,6.4,2.7c3,1.8,5.4,4.2,7,7c1.7,3.2,2.5,6.7,2.5,10.4c0,8.2-2.7,14.5-8.2,19.1c-5.4,4.2-13.2,6.4-23.1,6.4
			c-10.3,0-18-2.2-23.2-6.6C409.2,197,406.2,190.5,405.7,181.9"/>
		<path class="st1" d="M479.1,227.5V215h4.3c3,0,5.4-0.7,7.1-2.2c1.7-1.4,2.1-3.7,1-6.9l-21.1-60.1h17.5l12.3,42.7l10.7-37.2
			c0.9-3.6,3.3-5.4,7.3-5.4H529l-23.1,68.8c-1.8,5-4.1,8.5-6.8,10.7c-2.7,1.8-7.2,2.7-13.4,2.7h-1.6h-1.6c-0.5-0.2-1-0.3-1.7-0.3
			C480.1,227.6,479.5,227.5,479.1,227.5"/>
		<path class="st1" d="M528.4,186.2h15.4c0.2,3,1.3,5.3,3.4,6.8c2.3,1.5,5.3,2.3,9.1,2.3c2.7,0,5.1-0.5,7-1.6
			c1.8-1.1,2.7-2.5,2.7-4.3c0-2.7-3.2-4.8-9.5-6.1c-2.7-0.5-4.8-0.9-6.1-1.4c-8-2-13.4-4.3-16.1-7c-3-2.7-4.5-6.4-4.5-10.9
			c0-5.8,2.2-10.5,6.6-14.3c4.5-3.5,10.4-5.2,17.7-5.2c7.9,0,14.1,1.7,18.8,5.2c4.4,3.8,6.7,8.7,7,14.7h-9.8c-2.9,0-5.1-1.3-6.6-3.9
			c-0.6-0.6-1.2-1.2-1.8-1.8c-1.8-1.4-4.3-2-7.5-2c-3,0-5.3,0.5-6.8,1.4c-1.4,0.9-2,2.3-2,4.1c0,2.4,3.9,4.5,11.8,6.1
			c0.9,0.3,1.7,0.5,2.4,0.7c0.7,0.2,1.3,0.2,1.9,0.2c7.7,2,13.1,4.2,16.1,6.8c2.9,2.7,4.3,6.4,4.3,10.9c0,6.7-2.4,11.8-7.3,15.4
			c-4.5,3.3-11.3,5-20.4,5c-8.6,0-15.1-1.7-19.3-5.2c-4.4-3.5-6.6-8.5-6.6-15.2V186.2z"/>
		<path class="st1" d="M612.3,206.2c-5,0.3-10.4,0.2-16.2-0.2c-5.8-0.5-8.7-4.2-8.7-11.1v-66.7h8.2c2,0,3.7,0.8,5.2,2.3
			c1.5,1.5,2.3,3.3,2.3,5.4v10.2h9.3v3.2c0,2.3-0.8,4.1-2.3,5.6c-1.5,1.4-3.3,2.2-5.4,2.2H603v33.6c0,2.6,1.5,3.9,4.5,3.9h4.8V206.2
			z"/>
		<path class="st1" d="M656.8,187.6h11.3c-1.7,6.4-4.8,11.2-9.5,14.5c-4.7,3.5-10.6,5.2-17.7,5.2c-8.6,0-15.4-2.8-20.2-8.4
			c-4.8-5.5-7.3-13.2-7.3-23.4c0-9.7,2.3-17.2,7-22.7c4.8-5.6,11.6-8.4,20.2-8.4c9.1,0,16.1,2.7,21.1,8.2c4.8,5.6,7.3,13.4,7.3,23.4
			v1.6v0.9c0,0.8-0.1,1.3-0.2,1.6h-39.3c0.1,4.7,1.3,8.2,3.4,10.4c2,2.4,4.9,3.6,8.8,3.6c2.6,0,4.8-0.5,6.6-1.6
			c0.5-0.1,0.9-0.4,1.2-0.8c0.4-0.4,0.8-0.8,1.2-1.2c0.1-0.5,0.7-1.1,1.7-1.8C653.6,188,655,187.6,656.8,187.6 M629.6,169.9h23.1
			c-0.3-4.1-1.4-7.1-3.2-9.1c-2-2.1-4.8-3.2-8.4-3.2c-3.3,0-6.1,1.1-8.2,3.2C630.9,162.9,629.8,165.9,629.6,169.9"/>
		<path class="st1" d="M725.4,206.2h-15.7v-35.4v-3.2c0-3.6-1.1-6.3-3.3-7.9c-2.2-1.7-4.6-2.5-7.4-2.5c-2.7,0-5.1,0.8-7.3,2.5
			c-2.1,1.7-3.2,4.3-3.2,7.9v38.6h-15.9v-35.4c0-10.3,2.7-17.2,8.1-20.6c5.4-3.5,11.3-5.4,17.8-5.7c3.5,0,6.9,0.4,10.2,1.1
			c3.3,0.8,6.4,2.3,9.1,4.5c2.3-2,5-3.4,8.1-4.2c3.1-0.8,6.3-1.3,9.7-1.5c6.7,0,12.8,1.7,18.4,5.2c5.6,3.5,8.4,10.5,8.4,21.1v35.4
			h-7.9c-2.3,0-4.1-0.7-5.6-2.2c-1.4-1.4-2.1-3.3-2.1-5.6v-30.9c0-3.6-1.1-6.3-3.3-7.9c-2.2-1.7-4.7-2.5-7.4-2.5
			c-2.7,0-5.2,0.8-7.4,2.5c-2.2,1.7-3.3,4.3-3.3,7.9v3.2V206.2z"/>
	</g>
</g>
<g>
	<g>
		<defs>
			<path id="SVGID_1_" d="M44.9,0C18.1,0,0,12.8,3.7,48.3C8.6,94.8,45.1,208,87.5,226.7c23.2,10.2,44.4-24.9,39.7-44.1
				c-5.2-21-23.5-34.6-36.9-50c-15.5-17.8-35.1-43.7-34.9-68.5c0.5-52.7,123.6-11.8,147.3,8.5C184.2,49.7,97.7,0,44.9,0z"/>
		</defs>
		<clipPath id="SVGID_2_">
			<use xlink:href="#SVGID_1_"  style="overflow:visible;"/>
		</clipPath>
		
			<radialGradient id="SVGID_3_" cx="240.1961" cy="194.8396" r="2.6209" gradientTransform="matrix(89.0384 0 0 -89.0384 -21312.9102 17450.9414)" gradientUnits="userSpaceOnUse">
			<stop  offset="0" style="stop-color:#ED13B3"/>
			<stop  offset="0.2418" style="stop-color:#ED13B3"/>
			<stop  offset="0.6044" style="stop-color:#D9382F"/>
			<stop  offset="1" style="stop-color:#D9382F"/>
		</radialGradient>
		<rect class="st2" width="202.7" height="236.9"/>
	</g>
	<g>
		<defs>
			<path id="SVGID_4_" d="M115.6,128.6c0,0,58.2,48.1,13.5,99.2c45.3-45.3,131.9-122.4,30.9-160c-19.3-7.2-35.1-10.6-47-10.6
				C79.8,57.2,77.5,83.9,115.6,128.6"/>
		</defs>
		<clipPath id="SVGID_5_">
			<use xlink:href="#SVGID_4_"  style="overflow:visible;"/>
		</clipPath>
		
			<radialGradient id="SVGID_6_" cx="238.6377" cy="195.191" r="2.6196" gradientTransform="matrix(56.4948 0 0 -56.4948 -13378.6377 11098.5332)" gradientUnits="userSpaceOnUse">
			<stop  offset="0" style="stop-color:#8480DF"/>
			<stop  offset="0.6813" style="stop-color:#453E9F"/>
			<stop  offset="1" style="stop-color:#453E9F"/>
		</radialGradient>
		<rect x="77.5" y="57.2" class="st3" width="183.5" height="170.6"/>
	</g>
</g>
</svg>
