<?xml version="1.0" encoding="UTF-8"?>
<svg viewBox="0 0 29.999 29.999" xmlns="http://www.w3.org/2000/svg">
<g transform="translate(-823.86 -10704)">
<g transform="translate(823.86 10704)">
<circle transform="translate(0)" cx="14.999" cy="14.999" r="14.999" fill="#1da1f2"/>
<path transform="translate(389.42 -197.01)" d="M-368.9,206.231a3.3,3.3,0,0,0-2.419-1.141,3.348,3.348,0,0,0-2.384,1.03,3.348,3.348,0,0,0-.93,2.425,3.728,3.728,0,0,0,.085.8,9.339,9.339,0,0,1-6.831-3.775,3.666,3.666,0,0,0-.449,1.772,3.647,3.647,0,0,0,1.474,2.961,3.169,3.169,0,0,1-1.5-.458v.045a3.52,3.52,0,0,0,2.659,3.488,3.124,3.124,0,0,1-.873.118,3.131,3.131,0,0,1-.624-.068,3.368,3.368,0,0,0,3.1,2.466,6.4,6.4,0,0,1-4.116,1.5,6.315,6.315,0,0,1-.795-.051,8.942,8.942,0,0,0,5.08,1.59c6.1,0,9.43-5.3,9.43-9.9q0-.227-.01-.451a6.816,6.816,0,0,0,1.653-1.778,6.323,6.323,0,0,1-1.9.521,3.4,3.4,0,0,0,1.458-1.9,6.358,6.358,0,0,1-2.1.815Z" fill="#fff"/>
</g>
</g>
</svg>
