<?xml version="1.0" encoding="UTF-8"?>
<svg viewBox="0 0 72.984 101.77" xmlns="http://www.w3.org/2000/svg">
<path d="M37.782 37.113c-.038.186.379 4.622.344 4.808.015.215.048.427.1.636l.04-1.268 1.436-3.044c.047-.493-1.885-1.003-1.92-1.132zm21.345 36.95c.019.3-.2 7.4-.186 7.7.018.257-.049.706-.055 1.019l-.02-2.031-.766-4.875c-.025-.794 1.01-1.603 1.027-1.813zM30.803 6.275c.019.3-.2 7.4-.183 7.7.016.259-.047.708-.057 1.02l-.02-2.031-.767-4.878c-.023-.789 1.012-1.603 1.027-1.811z" fill="#485754"/>
<path d="M56.169 98.876a2.9 2.9 0 0 1 2.9 2.9h4.044a2.9 2.9 0 0 1 4.394-2.653 2.9 2.9 0 0 1 1.396 2.653h4.085v-3.725a2.9 2.9 0 0 1-2.653-4.394 2.9 2.9 0 0 1 2.653-1.396v-4.044a2.9 2.9 0 0 1-2.511-4.35 2.9 2.9 0 0 1 2.511-1.45v-4.04a2.9 2.9 0 0 1-2.653-4.394 2.9 2.9 0 0 1 2.653-1.396v-4.044a2.9 2.9 0 0 1-2.653-4.394 2.9 2.9 0 0 1 2.653-1.396V58.71a2.9 2.9 0 0 1-2.653-4.394 2.9 2.9 0 0 1 2.653-1.396v-4.044a2.9 2.9 0 0 1 0-5.8v-4.04a2.9 2.9 0 0 1-2.511-4.35 2.9 2.9 0 0 1 2.511-1.45V29.2a2.9 2.9 0 0 1-2.653-4.394 2.9 2.9 0 0 1 2.653-1.396v-4.048a2.9 2.9 0 1 1 0-5.8v-4.04a2.9 2.9 0 0 1-2.653-4.394 2.9 2.9 0 0 1 2.653-1.396V0H68.9c0 .768-.305 1.504-.848 2.046s-1.279.848-2.046.848A2.9 2.9 0 0 1 63.112 0h-4.044a2.9 2.9 0 0 1-2.9 2.894c-.768.001-1.505-.303-2.049-.846S53.274.768 53.275 0h-4.044c0 1.598-1.296 2.894-2.894 2.894-.768 0-1.504-.305-2.046-.848S43.443.768 43.443 0H39.4c0 .769-.306 1.506-.85 2.048s-1.282.847-2.05.846C34.903 2.892 33.61 1.597 33.61 0h-4.043c0 1.598-1.296 2.894-2.894 2.894a2.9 2.9 0 0 1-2.057-.842A2.9 2.9 0 0 1 23.761 0h-4.044c0 1.598-1.296 2.894-2.894 2.894-.769.001-1.506-.303-2.05-.846s-.85-1.28-.85-2.048H9.879a2.9 2.9 0 0 1-.849 2.051 2.9 2.9 0 0 1-2.051.849A2.9 2.9 0 0 1 4.086 0H0v3.719a2.9 2.9 0 0 1 2.894 2.9C2.892 8.216 1.597 9.509 0 9.509v4.044a2.9 2.9 0 0 1 2.894 2.9A2.9 2.9 0 0 1 0 19.348v4.044c.768 0 1.504.305 2.046.848s.848 1.279.848 2.046A2.9 2.9 0 0 1 0 29.185v4.044c.769 0 1.506.306 2.048.85s.847 1.282.846 2.05-.305 1.504-.848 2.046-1.279.848-2.046.848v4.044a2.9 2.9 0 0 1 2.894 2.9C2.893 47.565 1.598 48.86 0 48.86v4.04c.769 0 1.506.306 2.049.851s.847 1.283.845 2.052A2.9 2.9 0 0 1 0 58.7v4.044c.769 0 1.507.306 2.05.851s.847 1.284.844 2.053C2.891 67.244 1.596 68.537 0 68.537v4.044a2.9 2.9 0 0 1 2.05.852 2.9 2.9 0 0 1 .844 2.054C2.89 77.083 1.596 78.374 0 78.374v4.044a2.9 2.9 0 0 1 2.894 2.9A2.9 2.9 0 0 1 0 88.213v4.044c.768 0 1.504.305 2.046.848s.848 1.279.848 2.046A2.9 2.9 0 0 1 0 98.051v3.722h4.086c0-1.598 1.296-2.894 2.894-2.894s2.894 1.296 2.894 2.894h4.044c0-1.598 1.296-2.894 2.894-2.894s2.894 1.296 2.894 2.894h4.044a2.9 2.9 0 0 1 4.394-2.653 2.9 2.9 0 0 1 1.396 2.653h4.043c0-1.598 1.296-2.894 2.894-2.894s2.894 1.296 2.894 2.894h4.044c0-1.598 1.296-2.894 2.894-2.894s2.894 1.296 2.894 2.894h4.044c-.002-.773.306-1.515.855-2.06s1.293-.847 2.066-.84z" fill="#eae3dd"/>
<path d="M6.245 6.039h60.499v89.692H6.245z" fill="#a7c5b1"/>
<path d="M66.169 6.615v88.54H6.82V6.615h59.349m1.15-1.15H5.67v90.84h61.648z" fill="#fff"/>
<path d="M46.06 45.875l.186-.186V42.9L9.96 6.615H6.819v8.591l30.669 30.669zm12.72 10.02v11.27l7.388 7.388V62.821l-6.926-6.926z" fill="#9dbaa7"/>
<path d="M59.242 55.895l6.926 6.926v-1.449l-5.477-5.477zM46.246 41.451L11.409 6.615H9.96L46.246 42.9zm-8.758 4.423L6.819 15.205v1.449l29.22 29.22zM58.78 68.615l7.388 7.388v-1.449l-7.388-7.388z" fill="#c5d9cc"/>
<path d="M58.78 45.874h.462l6.926-6.926V27.217l-7.388 7.39zM46.246 55.895h-8.758L6.819 86.564v8.591H9.96L46.246 58.87z" fill="#9dbaa7"/>
<path d="M46.246 45.874v-.186l-.186.186zm14.445 0l5.477-5.477v-1.449l-6.926 6.926zm-1.911-11.27l7.388-7.387v-1.45l-7.388 7.388zM46.246 58.87L9.96 95.155h1.449l34.837-34.836zm-10.207-2.975l-29.22 29.22v1.449l30.669-30.669z" fill="#c5d9cc"/>
<path d="M47.109 55.033v40.123h10.808V55.033h8.251v-8.3h-8.251V6.615H47.109v40.123H6.819v8.3z" fill="#9dbaa7"/>
<path d="M58.779 67.166v-11.27h7.388v-.863h-8.251v40.123H47.109V55.033H6.819v.863h39.427v39.26h12.533v-27.99zm-11.67-20.428V6.615h-.863v39.26H6.819v.863zm10.808 0h8.251v-.863H58.78V6.615h-.863z" fill="#c5d9cc"/>
<path d="m43.869 6.615h22.3v14.431h-22.3z" fill="#37443f"/>
<path d="M16.085 90.077l.91.91v-9.315h-.91zm-1.618-7.646l1.9.213h.395l1.434-.213v-.759h-3.73zM9.915 90.96h.91v-8.518l-.91-.77zm5.883.027h1.2v-2.354l-5.071-6.961H8.733v.77l1.533.135-.809-.4zm-7.085-.027h3.73v-.759l-1.82-.213h-.4l-1.506.213zm4.745-23.687c-2.32 0-4.489 1.647-4.489 4.907 0 3.294 2.157 4.907 4.489 4.907s4.485-1.647 4.485-4.907c0-3.299-2.17-4.907-4.485-4.907zm-1.985 4.907c0-2.335.563-4.1 1.986-4.1s1.98 1.763 1.98 4.1-.558 4.087-1.98 4.087-1.986-1.742-1.986-4.087zm-.262-9.492h1.674c3.09 0 5.079-1.719 5.079-4.669 0-2.858-1.814-4.618-4.827-4.618h-1.926v.809h1.707c1.592 0 2.594 1.336 2.594 3.824 0 2.451-1 3.836-2.619 3.836h-1.682zm-.222-.971l-2.052.212v.759h2.274v-.971zm0-7.345h.222V53.4H8.937v.76zm-.964 3.886l-.043 4.429h2.459l-.042-4.439v-.465l.042-4.384h-2.46l.043 4.384zm6.066-10.59l.91.911v-9.316h-.91zm-1.618-7.644l1.9.212h.4l1.429-.212v-.76h-3.73zm-4.558 8.527h.91v-8.517l-.91-.77zm5.883.028h1.2v-2.355l-5.071-6.961H8.733v.771l1.533.135-.809-.4zm-7.085-.028h3.73v-.759l-1.82-.209h-.4l-1.506.212zm4.745-23.687c-2.32 0-4.489 1.649-4.489 4.908 0 3.294 2.157 4.907 4.489 4.907s4.485-1.649 4.485-4.907c0-3.294-2.165-4.908-4.485-4.908zm-1.985 4.908c0-2.335.563-4.1 1.986-4.1s1.98 1.763 1.98 4.1-.558 4.087-1.98 4.087-1.986-1.742-1.986-4.087zm4.676-12.267l-.555 2.77 1.078-.809h-4.577v.809h5.045l.142-2.77zm-5.241-2.131v.818l-.043 4.087h2.458l-.042-4.161v-.744l.042-4.384h-2.459l.044 4.385zm.964-3.412h.518l2.092-.212v-.76H9.82v.76zm0 7.345l-2.052.212v.76h2.275v-.972z" fill="#fff"/>
<g fill="#37443f">
<path d="M19.782 68.41c.001.173.141.313.314.315h1.336v26.43h4.988V70.184c.174-.134.283-.335.3-.554.017.219.126.42.3.554v24.971h.841V70.184c-.096-.149-.068-.347.066-.463s.334-.116.468 0 .162.314.066.463v24.971h.841V70.184c-.096-.149-.068-.347.066-.463s.334-.116.468 0 .162.314.066.463v24.971h.844V70.184c-.096-.149-.068-.347.066-.463s.334-.116.468 0 .162.314.066.463v24.971h.841V70.184c-.096-.149-.068-.347.066-.463s.334-.116.468 0 .162.314.066.463v24.971h.841V70.184c-.096-.149-.068-.347.066-.463s.334-.116.468 0 .162.314.066.463v24.971h.844V70.184c-.096-.149-.068-.347.066-.463s.334-.116.468 0 .162.314.066.463v24.971h5v-26.43h1.332a.7.7 0 0 1 .314-.944c-.001-.173-.141-.313-.314-.315h-.472V49.902h.472a.7.7 0 0 1 .314-.945c-.168-.003-.304-.137-.309-.305s.123-.31.29-.324c0-.166-.129-.304-.295-.315h-1.362v-4.178h.546c-.166-.343-.037-.756.295-.944-.174 0-.315-.141-.315-.315s.141-.315.315-.315c0-.166-.129-.304-.295-.315h-.472v-3.688a.3.3 0 0 1 .216.229h0v-1.2h0a.3.3 0 0 1-.216.229v-.605h.221v-.278h-.221v-.148h-.142v.148h-.221v.278h.221v.605c-.11-.028-.194-.117-.216-.229h0v1.2h0a.3.3 0 0 1 .216-.229v3.691h-.164s-2.707-4.119-3.1-7.669h.03c.174 0 .315-.141.315-.315s-.141-.315-.315-.315h-.21v-7.634h.21c.174 0 .315-.141.315-.315s-.141-.315-.315-.315h-.962v-3.414c.11.028.194.117.216.228h0V21h0c-.022.112-.106.201-.216.229v-.607h.221v-.27h-.221v-.146h-.156v.148h-.221v.27h.221v.605c-.11-.028-.194-.117-.216-.229h0v1.2h0c.022-.111.106-.2.216-.228v3.418h-.078a33.52 33.52 0 0 1-5.072-14.634c.098-.015.173-.095.181-.194s-.053-.19-.147-.221v-.945c.334.029.609.276.674.605l.015-.146c0-.39-.298-.715-.686-.751v-.208c.101-.033.163-.135.146-.239s-.107-.182-.213-.182-.196.077-.213.182.045.206.146.239v.2c-.388.036-.686.361-.686.751l.015.146c.065-.329.34-.576.674-.605v.944c-.102.025-.17.119-.163.223s.089.188.193.198a33.6 33.6 0 0 1-5.075 14.638h-.078v-3.419c.11.028.194.117.216.228h0V21h0c-.022.112-.106.201-.216.229v-.607h.221v-.27h-.221v-.146h-.15v.148h-.226v.27h.22v.605c-.11-.028-.194-.117-.216-.229h0v1.2h0c.022-.111.106-.2.216-.228v3.418h-.966c-.113 0-.217.06-.273.157s-.056.218 0 .315.16.158.273.157h.209v7.63h-.209c-.113 0-.217.06-.273.157s-.056.218 0 .315.16.158.273.157h.022c-.387 3.549-3.1 7.669-3.1 7.669h-.163v-3.691a.3.3 0 0 1 .216.229h0v-1.2h0a.3.3 0 0 1-.216.229v-.605h.221v-.278h-.221v-.148h-.142v.148h-.22v.278h.22v.605a.3.3 0 0 1-.214-.229h0v1.2h0a.3.3 0 0 1 .214-.229v3.691h-.47c.165.343.036.756-.295.944.174 0 .315.141.315.315s-.141.315-.315.315c0 .166.129.304.295.315h.551v4.179h-1.332a.7.7 0 0 1-.314.944c.174 0 .315.141.315.315s-.141.315-.315.315c0 .174.141.315.315.315h.472v17.56h-.472a.7.7 0 0 1-.314.944zm6.55-3.314h-.245a1.16 1.16 0 0 0 .338-.19.73.73 0 0 0-.093.19zm-.642-.181c-.131 0-.26-.028-.379-.082.274-.108.522-.275.726-.488.188-.182.341-.396.453-.632l.035-.094c.132.284.109.616-.06.88s-.462.422-.776.42zm-.375-3.075a6.64 6.64 0 0 0 .712 1.038 1.16 1.16 0 0 0-.944.124c.181-.238.276-.529.27-.828a1.43 1.43 0 0 0-.035-.338zm.375 1.239c.131 0 .261.028.38.082l-.094.036c-.237.111-.451.264-.632.453a2.05 2.05 0 0 0-.489.727.92.92 0 0 1 .836-1.3zm-.235.685a2 2 0 0 1 .582-.419.64.64 0 0 1 .229-.059l.135.135c-.004.079-.024.157-.058.229a2 2 0 0 1-.421.582 1.42 1.42 0 0 1-.809.477l-.135-.135a1.39 1.39 0 0 1 .48-.815zm1.109 1.334c.186-.304.525-.479.88-.454.355-.023.694.152.882.454zm2 0a1.14 1.14 0 0 0-1.115-.674 1.33 1.33 0 0 0-.809.262c.217-.292.284-.67.179-1.019a6.5 6.5 0 0 0 2.949 1.429zm2.472-.125a6.28 6.28 0 0 1-6.199-6.278 6.28 6.28 0 0 1 6.199-6.277h0l.007-.251v.251a6.28 6.28 0 0 1 6.189 6.288 6.28 6.28 0 0 1-6.211 6.267zm-5.951-10.587a1.16 1.16 0 0 0 .944.123 6.7 6.7 0 0 0-.712 1.038 1.41 1.41 0 0 0 .039-.334 1.32 1.32 0 0 0-.271-.829zm4.68-2.093a6.5 6.5 0 0 0-2.949 1.429c.105-.349.038-.727-.179-1.02a1.33 1.33 0 0 0 .809.262c.477.033.922-.237 1.115-.674zm-.464-4.272v-3.538c-.097-.15-.07-.348.065-.465s.335-.117.47 0 .162.316.065.465v3.536zm-.841 0h-.6v-3.538c-.097-.15-.07-.348.065-.465s.335-.117.47 0 .162.316.065.465zm-.135 4.272c-.203.284-.531.453-.881.453s-.678-.169-.881-.453zm-1.712 1.092c0 .131-.029.261-.084.38l-.035-.094a2.15 2.15 0 0 0-.453-.632c-.204-.214-.452-.381-.727-.489a.92.92 0 0 1 1.3.836zm-.683-.235c.175.167.317.364.421.582.034.071.054.149.058.228l-.135.135a.63.63 0 0 1-.229-.058 2 2 0 0 1-.582-.421 1.43 1.43 0 0 1-.479-.809l.135-.135c.317.063.604.233.812.48zm-.586.585c.182.188.396.341.632.453l.094.035a.92.92 0 0 1-1.213-1.213 2.05 2.05 0 0 0 .485.72zm5.392-5.717v-3.53c-.097-.15-.07-.348.065-.465s.335-.117.47 0 .162.316.065.465v3.536zm6.017 7.523a6.62 6.62 0 0 0-.713-1.038c.318.095.661.05.944-.123a1.32 1.32 0 0 0-.27.826 1.41 1.41 0 0 0 .038.331zm-.376-1.237A.9.9 0 0 1 36 54.22c.547-.23.983-.666 1.213-1.213.132.284.109.616-.06.88s-.462.422-.776.42zm.236-.683a1.43 1.43 0 0 1-.809.479l-.135-.135a1.4 1.4 0 0 1 .479-.809 1.47 1.47 0 0 1 .809-.48l.135.135c-.063.318-.232.604-.479.813zm-.582-.582a2.05 2.05 0 0 0-.489.727c-.055-.119-.085-.249-.088-.38a.92.92 0 0 1 1.3-.836c-.273.11-.519.278-.721.492zm-1.407-.3a.97.97 0 0 1-.882-.453h1.762a.96.96 0 0 1-.88.456zm-.415-4.725h-.6v-3.531c-.097-.15-.07-.348.065-.465s.335-.117.47 0 .162.316.065.465zm.415 4.942a1.33 1.33 0 0 0 .809-.262c-.217.293-.284.671-.179 1.02a6.5 6.5 0 0 0-2.949-1.429h1.2c.196.435.642.704 1.119.673zm-1.852-4.939h-.6v-3.53c-.097-.15-.07-.348.065-.465s.335-.117.47 0 .162.316.065.465zm4.216 14.984a1.16 1.16 0 0 0-.944-.124c.27-.322.509-.67.713-1.038a1.43 1.43 0 0 0-.039.334c-.005.297.089.586.268.823zm-.263.648c-.204-.214-.452-.381-.727-.489.348-.157.756-.082 1.026.187s.344.678.187 1.026a2.03 2.03 0 0 0-.488-.727zm.367.923l-.135.135a1.39 1.39 0 0 1-.809-.477 2 2 0 0 1-.421-.582c-.034-.072-.054-.15-.058-.229l.135-.135a1.4 1.4 0 0 1 .809.479 1.45 1.45 0 0 1 .479.809zm-3.583.522h-1.2a6.5 6.5 0 0 0 2.949-1.429c-.105.349-.038.727.179 1.019-.234-.173-.518-.265-.809-.262-.478-.034-.927.235-1.121.674zm.233 0a.95.95 0 0 1 .882-.454.96.96 0 0 1 .88.454zm1.995 0a.83.83 0 0 0-.093-.19 1.16 1.16 0 0 0 .338.19zm.64-.181a.92.92 0 0 1-.918-.918.93.93 0 0 1 .082-.379c.109.274.276.522.489.727.204.213.451.379.725.488-.119.054-.248.082-.379.082zm1.062.181h-.666c.295-.107.535-.328.666-.613zm0-1.584a1.14 1.14 0 0 0-.175-.27l.175.067zm0-.433a1.06 1.06 0 0 1 0-1.809zm0-2.035c-.169.045-.319.143-.429.278a6.51 6.51 0 0 0 .429-1.359zm0-3.622a6.5 6.5 0 0 0-.429-1.357.84.84 0 0 0 .429.276zm0-1.308a1.06 1.06 0 0 1 0-1.808zm0-2.035l-.175.067a1.13 1.13 0 0 0 .175-.27zm2.831-4.172h.306v17.878h-.3zm-2.831 2.383v.612a1.17 1.17 0 0 0-.666-.612zm-1.483-12.513a.49.49 0 0 1 .747-.48.49.49 0 0 1 .219.48v1.561h-.966zm.028 12.513a1.13 1.13 0 0 0-.338.19l.093-.19zm-.836-22.092h.34V27.94h.135v5.149h-.472zm.2 13.731a.78.78 0 0 0 .3.555v3.536h-.6v-3.535a.8.8 0 0 0 .3-.561zm-.225-7.154v1.561h-.966v-1.565a.84.84 0 0 0 .483-.554.84.84 0 0 0 .484.554zm-1.942-6.577h.338V27.94h.93v2.256h.34v2.9h-1.608zm.135 9.58v1.56h-.964v-1.564c.238-.101.416-.305.484-.554a.84.84 0 0 0 .483.554zm-2.1-9.58h.34V27.94h.933v2.256h.34v2.9h-1.612zm-.184 6.021a.84.84 0 0 0 .483.554v1.561h-.965v-1.563a.84.84 0 0 0 .483-.554zm-1.78-6.021h.34V27.94h.929v2.256h.34v2.9h-1.609zm-.013 9.031a.84.84 0 0 0 .484.554v1.561h-.967v-1.57c.236-.102.412-.306.479-.554zm-1.956-9.031h.341V27.94h.929v2.256h.34v2.9h-1.614zm-.329 6.577c.238-.101.416-.305.484-.554a.84.84 0 0 0 .483.554v1.561h-.966zm-.5-8.829h.135v2.252h.34v2.9h-.472zm-.034 16.541c.174-.134.283-.336.3-.555.017.219.126.421.3.555v3.536h-.6zm0 8a1.13 1.13 0 0 0-.338-.19h.245zm-1.278-12.7a.84.84 0 0 0 .484-.554.84.84 0 0 0 .483.554v1.561h-.967zm-.518 12.513h.666c-.295.106-.535.327-.666.612zm0 1.584a1.13 1.13 0 0 0 .175.27l-.175-.067zm0 .433a1.06 1.06 0 0 1 0 1.808zm0 2.034a.84.84 0 0 0 .429-.276 6.5 6.5 0 0 0-.422 1.359zm0 3.622a6.51 6.51 0 0 0 .429 1.359c-.11-.135-.26-.232-.429-.278zm0 1.308a1.06 1.06 0 0 1 0 1.809zm0 2.035l.175-.067a1.14 1.14 0 0 0-.175.27zm0 1.177a1.17 1.17 0 0 0 .666.613h-.666zM21.501 49.91h.3v17.878h-.3z"/>
<path d="M35.927 58.583h.625a5.5 5.5 0 0 0-1.568-3.749l-.443.445a4.88 4.88 0 0 1 1.386 3.304zm-1.059-3.862a5.5 5.5 0 0 0-3.747-1.546v.625a4.88 4.88 0 0 1 3.305 1.364z"/>
<path d="M32.715 54.863a4.16 4.16 0 0 1 1.2.809l.388-.388a4.8 4.8 0 0 0-1.379-.923zm1.846 7.213l.443.443a5.5 5.5 0 0 0 1.549-3.774h-.627a4.87 4.87 0 0 1-1.365 3.331zm-3.891-1.879c.1-.039.17-.5.17-.5l.011-.411a.63.63 0 0 1-.44-.615c.007-.28.2-.522.472-.591l.057-2.072c-1.46.059-2.605 1.275-2.575 2.736s1.222 2.63 2.683 2.63 2.654-1.169 2.683-2.63-1.115-2.677-2.575-2.736l.057 2.076c.26.077.442.313.449.584a.63.63 0 0 1-.417.608l.012.421s.066.46.168.5c-.283-.034-.377.4-.377.468-.001-.063-.095-.502-.378-.468z"/>
<path d="M30.944 55.842l.007-.27v-.9c-1.001.02-1.958.415-2.681 1.107l.824.822a2.83 2.83 0 0 1 1.85-.759zm.206.001a2.84 2.84 0 0 1 1.825.764l.824-.822a4 4 0 0 0-2.681-1.107z"/>
<path d="M32.768 54.293a4.68 4.68 0 0 0-1.653-.329v.547a4.18 4.18 0 0 1 1.444.288zm-1.817-.497v-.625a5.5 5.5 0 0 0-3.749 1.55l.445.443c.888-.858 2.069-1.347 3.304-1.368zm-4.305 6.644l.507-.209a4.16 4.16 0 0 1-.3-1.483h-.549a4.7 4.7 0 0 0 .342 1.692zm1.602 1.132a4 4 0 0 0 2.7 1.126v-1.163a2.83 2.83 0 0 1-1.879-.786z"/>
<path d="M28.014 61.57a4.2 4.2 0 0 1-.8-1.186l-.507.209a4.73 4.73 0 0 0 .915 1.364zm1.329 1.53a4.72 4.72 0 0 0 1.608.313v-.549a4.12 4.12 0 0 1-1.4-.27z"/>
<path d="M28.187 58.75h-1.163a4 4 0 0 0 1.107 2.7l.824-.824a2.83 2.83 0 0 1-.768-1.876zm2.931 2.784v1.163a4 4 0 0 0 2.7-1.126l-.824-.824a2.84 2.84 0 0 1-1.876.787z"/>
<path d="M31.118 63.413a4.69 4.69 0 0 0 1.732-.361l-.2-.487.154-.063.2.483a4.75 4.75 0 0 0 1.324-.909l-.388-.387a4.16 4.16 0 0 1-2.82 1.175zm4.646-4.663h-.549a4.19 4.19 0 0 1-.338 1.588l.507.209c.243-.568.372-1.179.38-1.797zm-.822-1.542c.167.44.258.905.27 1.375h.549a4.69 4.69 0 0 0-.31-1.584zm-.887 4.363l.388.387a4.72 4.72 0 0 0 .874-1.258l-.505-.209a4.21 4.21 0 0 1-.757 1.08z"/>
<path d="M26.739 56.722l.505.209a4.23 4.23 0 0 1 .79-1.147l-.388-.381a4.73 4.73 0 0 0-.907 1.319zm2.657 5.809a4.18 4.18 0 0 1-1.264-.843l-.388.387a4.77 4.77 0 0 0 1.444.964zm5.651-3.948a4 4 0 0 0-1.126-2.681l-.824.822c.48.503.76 1.164.786 1.859z"/>
<path d="M34.035 55.783c.357.368.643.799.845 1.27l.507-.209a4.74 4.74 0 0 0-.964-1.442zm-7.893 2.967h-.625a5.5 5.5 0 0 0 1.547 3.774l.442-.443a4.88 4.88 0 0 1-1.364-3.331zm1.039 3.887a5.51 5.51 0 0 0 3.774 1.568v-.625a4.87 4.87 0 0 1-3.325-1.386zm5.887.501l.009.024-.155.065-.008-.022c-.571.238-1.182.366-1.8.375v.625a5.5 5.5 0 0 0 3.774-1.568l-.443-.443a4.9 4.9 0 0 1-1.382.944zm-3.794-8.239l-.209-.507c-.48.221-.919.521-1.3.887l.388.388a4.18 4.18 0 0 1 1.121-.768zm-1.122 1.003a4 4 0 0 0-1.126 2.681h1.163c.028-.696.31-1.357.793-1.859z"/>
<path d="M26.31 58.583h.549a4.16 4.16 0 0 1 .318-1.5l-.507-.209a4.72 4.72 0 0 0-.36 1.709zm4.64-4.619a4.67 4.67 0 0 0-1.734.36l.209.507a4.14 4.14 0 0 1 1.525-.321z"/>
<path d="M27.528 55.279l-.445-.445c-.981 1.004-1.541 2.345-1.566 3.749h.625a4.87 4.87 0 0 1 1.386-3.304zm6.41 6.174a4 4 0 0 0 1.109-2.7h-1.163a2.83 2.83 0 0 1-.766 1.879z"/>
</g>
<path d="M56.855 17.793h1.51v-2.426l.745-.713 2.166 3.139h1.833l-2.944-4.13 2.84-2.939h-1.831l-2.811 3.16v-3.161h-1.51zm-1.329 0v-1.8h-1.577v1.8zm-8.531-7.07v4.165c0 2.36 1.374 3 2.966 3 1.56 0 2.974-.616 2.974-3.033v-4.132h-1.526v4.211c0 1.283-.549 1.752-1.423 1.752-.763 0-1.46-.4-1.46-1.752v-4.211z" fill="#fff"/>
</svg>
