<?xml version="1.0" encoding="UTF-8"?>
<svg viewBox="0 0 27.492 18.012" xmlns="http://www.w3.org/2000/svg">
<path d="M25.433 0H2.059A2.06 2.06 0 0 0 0 2.059v13.894a2.06 2.06 0 0 0 2.059 2.059h23.374a2.06 2.06 0 0 0 2.059-2.059V2.059A2.06 2.06 0 0 0 25.433 0z" fill="#41479b"/>
<path d="M27.464 1.719A2.06 2.06 0 0 0 25.434 0H24.9l-8.781 5.753V0h-4.74v5.753L2.595 0h-.536a2.06 2.06 0 0 0-2.03 1.719l7.505 4.917H0v4.74h7.534L.029 16.293a2.06 2.06 0 0 0 2.03 1.719h.536l8.781-5.753v5.753h4.74v-5.753l8.781 5.753h.536a2.06 2.06 0 0 0 2.03-1.719l-7.505-4.917h7.534v-4.74h-7.534z" fill="#f5f5f5"/>
<path d="M15.168 0h-2.844v7.584H0v2.84h12.324v7.584h2.844v-7.584h12.324v-2.84H15.168zM1.331 17.879l10.019-6.5H9.608L.495 17.295a2.06 2.06 0 0 0 .836.584zm17.267-6.503h-1.74l9.7 6.3a2.07 2.07 0 0 0 .66-.7zM.217 1.138l8.469 5.5h1.742L.828.408C.57.6.361.85.217 1.138zm17.64 5.498l9.13-5.927a2.06 2.06 0 0 0-.843-.583l-10.028 6.51z" fill="#ff4b55"/>
</svg>
