<?xml version="1.0" encoding="UTF-8"?>
<svg viewBox="0 0 72.984 101.77" xmlns="http://www.w3.org/2000/svg">
<g fill="#485754">
<path d="M36.666 17.337c-.036.185.381 4.621.345 4.807a3.83 3.83 0 0 0 .1.636l.042-1.267 1.429-3.045c.045-.493-1.888-1.003-1.916-1.131zm6.986 60.683c-.038.186.38 4.621.344 4.808a3.71 3.71 0 0 0 .1.636l.042-1.268 1.434-3.044c.046-.493-1.887-1.003-1.92-1.132zM24.648 1.7c.022.3-.2 7.4-.183 7.7.018.259-.049.708-.055 1.02l-.02-2.034-.766-4.877c-.025-.787 1.009-1.603 1.024-1.809zm-2.205 90.555c.019.3-.2 7.4-.186 7.7.018.259-.049.708-.054 1.019l-.022-2.031-.767-4.877c-.022-.784 1.012-1.605 1.029-1.811zM3.817 41.668c-.044.3.442 7.4.4 7.7a7.87 7.87 0 0 0 .12 1.019l.047-2.031 1.672-4.878c.049-.787-2.203-1.602-2.239-1.81zm51.701 16.084v-.307a2.55 2.55 0 0 1 .243-1.058l-3.359-1.086a45.9 45.9 0 0 0-.069 5c.51.45.849 1.061.962 1.732l3.378-2.065c-.705-.522-1.131-1.339-1.155-2.216z"/>
<path d="M48.709 58.878c-.148.3 1.538 7.4 1.393 7.7-.12.26.372.708.425 1.02l.16-2.031c.085.023 5.7-4.944 5.813-4.878.17-.791-7.662-1.603-7.791-1.811z"/>
<path d="M47.66 53.651c-.007.085 2.854 14.092 2.854 14.092z"/>
</g>
<path d="M56.17 98.876c.769 0 1.506.306 2.048.85s.847 1.282.846 2.05h4.044a2.9 2.9 0 0 1 4.394-2.653 2.9 2.9 0 0 1 1.396 2.653h4.085v-3.72c-1.598 0-2.894-1.296-2.894-2.894s1.296-2.894 2.894-2.894v-4.047a2.9 2.9 0 0 1-2.653-4.394 2.9 2.9 0 0 1 2.653-1.396v-4.043a2.9 2.9 0 0 1-2.653-4.394 2.9 2.9 0 0 1 2.653-1.396v-4.044c-1.598 0-2.894-1.296-2.894-2.894s1.296-2.894 2.894-2.894v-4.044a2.9 2.9 0 0 1-2.653-4.394 2.9 2.9 0 0 1 2.653-1.396v-4.044a2.9 2.9 0 0 1 0-5.8v-4.04c-1.598 0-2.894-1.296-2.894-2.894s1.296-2.894 2.894-2.894v-4.045c-1.598 0-2.894-1.296-2.894-2.894s1.296-2.894 2.894-2.894v-4.044a2.9 2.9 0 1 1 0-5.8v-4.04a2.9 2.9 0 0 1-2.653-4.394 2.9 2.9 0 0 1 2.653-1.396V0H68.9c0 .768-.305 1.504-.848 2.046s-1.279.848-2.046.848A2.9 2.9 0 0 1 63.114 0h-4.045c0 1.598-1.296 2.894-2.894 2.894-.769.001-1.506-.303-2.05-.846S53.276.768 53.276 0h-4.044c0 1.598-1.296 2.894-2.894 2.894-.768 0-1.504-.305-2.047-.847S43.443.768 43.443 0H39.4c0 1.598-1.296 2.894-2.894 2.894-.768 0-1.504-.305-2.047-.847S33.611.768 33.611 0h-4.044c0 1.598-1.296 2.894-2.894 2.894a2.9 2.9 0 0 1-2.057-.842A2.9 2.9 0 0 1 23.761 0h-4.044c0 1.598-1.296 2.894-2.894 2.894S13.929 1.598 13.929 0H9.885a2.9 2.9 0 0 1-.849 2.051 2.9 2.9 0 0 1-2.051.849A2.9 2.9 0 0 1 4.086 0H0v3.719c.768 0 1.504.305 2.046.848s.848 1.279.848 2.046A2.9 2.9 0 0 1 0 9.509v4.044a2.9 2.9 0 0 1 2.894 2.9c.001.768-.304 1.504-.846 2.047s-1.28.848-2.048.847v4.044a2.9 2.9 0 0 1 2.9 2.9 2.9 2.9 0 0 1-2.9 2.9v4.044c1.598 0 2.894 1.296 2.894 2.894S1.596 39.017 0 39.017v4.044a2.9 2.9 0 0 1 2.05.852 2.9 2.9 0 0 1 .844 2.054c0 1.598-1.296 2.894-2.894 2.894v4.044a2.9 2.9 0 0 1 2.049.851 2.9 2.9 0 0 1 .845 2.051C2.893 57.405 1.598 58.7 0 58.7v4.044c.768 0 1.504.305 2.046.848s.848 1.279.848 2.046C2.893 67.236 1.598 68.531 0 68.531v4.044c.771 0 1.51.307 2.053.854s.846 1.288.841 2.059C2.891 77.084 1.596 78.376 0 78.376v4.044a2.9 2.9 0 0 1 2.894 2.9c.001.768-.303 1.505-.846 2.049s-1.28.845-2.048.844v4.044c.768 0 1.504.305 2.046.848s.848 1.279.848 2.046-.305 1.504-.847 2.047-1.279.848-2.047.848v3.729h4.086c0-1.598 1.296-2.894 2.894-2.894s2.894 1.296 2.894 2.894h4.044c0-1.598 1.296-2.894 2.894-2.894s2.894 1.296 2.894 2.894h4.044a2.9 2.9 0 0 1 4.394-2.653 2.9 2.9 0 0 1 1.396 2.653h4.043c0-1.598 1.296-2.894 2.894-2.894s2.894 1.296 2.894 2.894h4.044c0-1.598 1.296-2.894 2.894-2.894s2.894 1.296 2.894 2.894h4.044a2.9 2.9 0 0 1 2.921-2.9z" fill="#eae3dd"/>
<path d="M6.388 6.182h60.211v89.406H6.388z" fill="#c1d2df"/>
<path d="M66.167 6.615v88.542H6.82V6.615h59.347m.861-.864H5.957V96.02h61.074z" fill="#446f80"/>
<path d="M13.159 13.527l1.267 2.568 2.835.412-2.052 2 .484 2.823-2.534-1.334-2.536 1.333.484-2.823-2.05-2 2.835-.412zm0 22.304l1.267 2.569 2.835.411-2.052 2 .484 2.823-2.534-1.333-2.536 1.332.484-2.823-2.05-2 2.835-.411zm0 22.306l1.267 2.568 2.835.411-2.052 2 .484 2.823-2.534-1.333-2.536 1.333.484-2.823-2.05-2 2.835-.411zm0 22.305l1.267 2.567 2.835.413-2.052 2 .484 2.823-2.534-1.334-2.536 1.332.484-2.823-2.05-2 2.835-.413zm10.32-55.763l1.268 2.568 2.834.412-2.05 2 .484 2.823-2.536-1.332-2.534 1.332.484-2.823-2.05-2 2.833-.412zm0 44.61l1.268 2.568 2.834.412-2.05 2 .484 2.823-2.536-1.333-2.534 1.333.484-2.823-2.05-2 2.833-.412z" fill="#dfe8ee"/>
<path d="M36.116 24.743h30.052v70.414H36.116z" fill="#96c1da"/>
<path d="M37.241 80.531a.55.55 0 0 1-.655 0v.572l.655.011zM23.82 84.07l-.031.007h-.04v.626h.071z" fill="#88b0c8"/>
<g fill="#488ba9">
<path d="M18.853 78.339h.011l.032-.044-.032-.043h-.216a.7.7 0 1 0-1.379 0h-.216l-.034.043.034.044h.011v.871h-.321l-.044.044.044.043h.015v1.429h-.3l-.054.055.054.054h.019v2.576l1.016-.016v2.99h1.147v-2.31h-.043c-.047.004-.092-.018-.117-.058s-.025-.09 0-.13.07-.063.117-.058h.4V79.21h-.156zm35.981.868h.661v-1.089h.011l.034-.034-.034-.032h-.218c-.021-.33-.273-.598-.6-.642v1.8zm-17.549 1.289c.173-.154.232-.398.15-.614s-.289-.359-.521-.359a.56.56 0 0 0-.521.359c-.083.216-.023.46.15.614v.607l-.563-.009v7.3h.318v-3.456h.576v-1.685l1.244-.887v-1.232l-.833-.013zm-.043.617l-.655-.011v-.572a.55.55 0 0 0 .655 0zm28.306 1.854v-1.452h.026l.077-.08-.077-.077h-.253V78.11h.009l.078-.078-.078-.078h-.245V76.57h.3l-.9-1.569h-1.062l-.11.193v8.126l1.316.749v-.74h.623v-1.025h.088v1.025h.841v-.363z"/>
<path d="M58.95 77.563h.03l.092-.092-.092-.092h-.182v-1.153h.144l-.144-.892v-.718h-2.292v.079h-.348l-.251 1.531h.169v1.148h-.2l-.092.092.092.092h.03v3h-.1v-1.266h.013l.044-.043-.044-.044h-1.131v2.292h.31l.1.1-.1.1h-.01v4.15h.325l.1.1-.1.1h-.032v2.82h.241v-3.081H55.5l-.065-.065.065-.065h1.06v-.539c-.274-.245-.368-.633-.237-.977s.46-.57.828-.57.697.227.828.57.037.732-.237.977v.539h1.32l.066.065-.066.065h-.015v3.078h.216v-4.831h-.306zm-27.139-.994h.3v1.384h-.245l-.078.078.078.078h.011v2.511l.952-2.976V75h-.106zm6.882 5.38l.09-.063v-.133h-.09zm2.285-2.244h-.135v1.945l-1.468.836v.481h-.392v1.967h.576v3.455h.531v1.992h.336v-3.075h-.033l-.1-.1.1-.1h.384v-4.11h-.028l-.086-.086.086-.088h.469v-1.387l-.24.137zm8.56 1.078h.128v.929h-.159l-.069.051h-.514v-3.607h.039a.12.12 0 0 0 .12-.12l-.12-.12h-.257v-2.207h.208l-.326-.787h-.848v-1.01h.115l.115-.115-.115-.115h-.4v-.74h.071l.074-.074-.074-.074h-.539v-2h-.1v2h-.539l-.074.074.074.074h.073v.74h-.4l-.115.115.115.115h.113v1.01h-.862l-.328.787h.209v2.208h-.256l-.12.12a.12.12 0 0 0 .12.12h.038v2.255h.121l.07.07-.07.07h-.023v2.271h.468l.088.088-.088.086h-.027v4.11h.728v-4.109h-.028l-.088-.086.088-.088h4.754l.088.088-.088.086h-.027v4.11h.276v-1.061h-.032l-.1-.1.1-.1h.325v-4.151h-.013l-.1-.1.1-.1h.314v-1.947h-2.034zm-5.065-2.267h-.3a1.06 1.06 0 0 1 .049.252h.234v-.158h.015l.047-.046zm-2.62.049l.047.046h.015v.158h.115a1.13 1.13 0 0 1 .05-.252h-.179zm14.777 6.609v.485h1.042v-.485c-.31.226-.732.226-1.042 0zm-41.263-3.462h-.153v-.929h.127l-.2-1.233h-2.044l-.2 1.233h.135v.929h-.164l-.069.051h-.514v-3.607h.038a.12.12 0 0 0 .121-.12l-.121-.12h-.256v-2.207h.2l-.326-.787h-.843v-1.01h.116l.115-.115-.115-.115h-.4v-.74h.073l.074-.074-.074-.074h-.539v-2h-.1v2h-.539l-.074.074.074.074h.071v.74h-.4l-.115.115.115.115h.113v1.01h-.851l-.328.787h.2v2.208h-.257l-.119.12c0 .032.012.062.034.085s.053.035.085.035h.039v4.354h-.482v-3.9h.015l.047-.046-.047-.049h-.415v4.8l1.317.75v-.74h.621v-1.024h.084v1.03h1.194v-1.024h.084v1.024h.547v2.186l.183.105v.764h2v-2.925l2.879-.047v-1.651h-.9zm16.239-2.918H29.07l-.071.071.071.071h.009v2.972h-.232l-.071.071.071.071h.023v1.983h-.616v-6.466h.03l.092-.092-.092-.092h-.2v-1.156h.159l-.251-1.53H25.46l-.251 1.53h.159v1.153h-.2l-.092.092.092.092h.03v2.186h2.631l.115.113-.115.113h-.015v4.726h.369l.113.115-.113.113h-.036v3.154h1.516v-.6l1.961-6.128h-.018-.02v-2.419h.009l.073-.071z"/>
</g>
<path d="M65.33 83.33v-1.024h-.086v1.024h-.623v.74l-1.316-.749v-9.529h.024l.074-.074-.074-.075H59.23l-.074.075.074.074h.024v15.074h-.214v-3.077h.02l.066-.065-.066-.065h-1.32v-.539c.275-.245.369-.634.238-.978s-.461-.571-.829-.571-.698.227-.829.571-.036.733.238.978v.539h-1.06l-.065.065.065.065h.022v3.077h-.243v-2.82h.032l.1-.1-.1-.1h-.32v-4.15h.013l.1-.1-.1-.1h-.314v-14.07h.379l-1.119-1.937h.081l.1-.1-.1-.1h-.1v-.965h.1l.1-.1-.1-.1h-.346v-8.838l-.909 6.2v2.638h-.34l-.1.1.1.1h.1v.965h-.1l-.1.1.1.1h.084L51.4 67.426h.379v14.07h-.314l-.1.1.1.1h.013v4.15h-.325l-.1.1.1.1h.032v1.061h-.276v-4.11h.027l.088-.086-.088-.088h-4.758l-.088.088.088.086h.028v4.11h-.728v-4.11h.027l.088-.086-.088-.088h-.468v-2.267h.023l.07-.07-.07-.07h-.511v-1.538h.018l.053-.053-.053-.053h-.342c-.006-.086-.022-.17-.049-.252-.138-.465-.565-.784-1.05-.784s-.912.319-1.05.784a1.13 1.13 0 0 0-.05.252h-.341l-.053.053.053.053h.016v1.538h-.51l-.07.07.07.07h.023v2.271h-.469l-.086.088.086.086h.028v4.11h-.384l-.1.1.1.1h.041v3.075h-.34v-1.992h-.53v-3.456h-.577v-3.189l-.2.143-.09.063-.576.414-1.244.887v1.685h-.576v3.454h-.317V74.63h.019l.058-.058-.058-.058h-3.194l-.058.058.058.058h.019v3.016l-.952 2.976-.237.74-1.961 6.124v.6h-1.516v-3.158h.036l.113-.113-.113-.115h-.369v-4.724h.015l.113-.113-.113-.113h-4.034l-.113.113.113.113h.015v3.858h-.435v-5.172h.016c.068 0 .124-.056.124-.124s-.056-.124-.124-.124h-.391v-2.2h.472l-1.441-2.494h-1.687l-1.44 2.494h.47v2.2h-.392c-.044 0-.085.024-.107.062s-.022.086 0 .124.063.062.107.062h.013v5.167h-.4c-.047-.004-.092.018-.117.058s-.025.09 0 .13.07.063.117.058h.04v2.31h-1.15v-2.99l-1.016.016h-.15l-2.879.047v2.924h-1.993v-.764l-.183-.105V83.33h-.554v-1.024h-.091v1.024h-1.2v-1.024h-.089v1.024H8.73v.74l-1.314-.749v-9.529h.024l.075-.074-.075-.075h-.62v21.513h59.35V83.33zm-41.509 1.372h-.071v-.627h.071zm33.851.957H56.63v-.485c.31.226.732.226 1.042 0z" fill="#72a7c4"/>
<path d="M66.169 30.658H37.923l-1.429 13.554-8.511-13.554-1.413-19.622h39.6z" fill="#dfe8ee"/>
<path d="M43.062 15.8c.02-.174-.029-.348-.135-.487l-.539-.5-.088-.156a.1.1 0 0 1 .1-.1h2.658a.1.1 0 0 1 .105.1l-.088.156-.539.5c-.099.142-.146.314-.135.487v9.448c0 .764.069 1.46.886 1.46.642 0 .816-.7.816-1.46V15.8c.02-.174-.029-.348-.135-.487l-.539-.5-.088-.156a.1.1 0 0 1 .105-.1h2.379a.1.1 0 0 1 .1.1l-.086.156-.539.5c-.099.142-.146.314-.135.487v9.9a1.88 1.88 0 0 1-2.014 1.876 1.84 1.84 0 0 1-2.085-1.876zm5.854 10.908c0 .417-.174.868-.643.868s-.625-.452-.625-.868.174-.886.625-.886.643.452.643.886zm4.342-7.661c0 .053-.035.088-.1.088s-.088-.053-.105-.121c-.278-1.407-1.111-3.6-1.91-3.6-.434 0-.469.365-.469.817 0 .851.226 1.7 1.511 4.43 1.213 2.571 1.348 3.144 1.348 4.516 0 1.841-.954 2.4-1.6 2.4-.351-.003-.692-.119-.973-.33-.103-.081-.221-.14-.348-.174-.069 0-.208.123-.555.383-.069.051-.135.121-.208.121s-.088-.034-.088-.086v-4.377c0-.053.018-.123.088-.123l.1.123c.313 1.39.851 3.6 1.875 3.6.33 0 .5-.365.5-.9 0-1.165-.52-2.426-1.511-4.516-.774-1.403-1.214-2.967-1.285-4.568 0-1.651.712-2.172 1.6-2.172a1.72 1.72 0 0 1 .973.4.62.62 0 0 0 .26.1c.153-.058.29-.15.4-.27.162-.148.261-.226.365-.226s.121.086.121.19zm2.172 7.661c0 .417-.174.868-.643.868s-.625-.452-.625-.868.174-.886.625-.886.643.452.643.886zm3.63-2.033c-.018-.086-.069-.156-.156-.156h-1.286c-.051 0-.086.053-.1.121l-.26 1.916a.4.4 0 0 0 .086.313l.383.4c.069.088.174.156.174.209s-.035.1-.121.1h-2a.1.1 0 0 1-.105-.1l.121-.174.487-.487a.71.71 0 0 0 .135-.434l1.581-11.672c.018-.088.051-.156.135-.156h.643c.086 0 .135.086.156.19l1.65 11.656a.72.72 0 0 0 .19.469l.5.452.1.156c0 .051-.034.1-.121.1H58.76c-.086 0-.121-.053-.121-.1l.121-.156.469-.469c.079-.098.11-.225.086-.348zm-.243-1.078c.051 0 .086-.051.069-.121l-.608-4.256h-.035l-.57 4.273c-.018.069.018.1.053.1z" fill="#fff"/>
<path d="M58.647 23.599c-.035 0-.069-.035-.053-.1l.574-4.273h.034l.608 4.256c.018.07-.016.121-.069.121zm1.6 2.9c.026.123-.006.251-.086.348l-.469.469-.121.156c0 .051.035.1.121.1h2.5c.088 0 .121-.053.121-.1l-.1-.156-.5-.452a.72.72 0 0 1-.191-.469l-1.65-11.656c-.018-.1-.069-.19-.156-.19h-.643c-.086 0-.121.069-.135.156l-1.58 11.672c.003.156-.044.308-.135.434l-.485.487-.123.174a.1.1 0 0 0 .105.1h2c.086 0 .121-.053.121-.1s-.105-.121-.174-.209l-.382-.4c-.073-.087-.105-.201-.088-.313l.262-1.911c.016-.069.051-.121.1-.121h1.285c.088 0 .135.07.156.156zm-4.533-.674c-.452 0-.625.452-.625.886s.174.868.625.868.643-.452.643-.868-.174-.888-.643-.888zm-1.522-11.086c0-.1-.035-.19-.121-.19s-.209.086-.365.225c-.112.12-.248.215-.4.278a.62.62 0 0 1-.26-.1 1.72 1.72 0 0 0-.972-.4c-.887 0-1.6.52-1.6 2.172.074 1.601.514 3.164 1.286 4.568.989 2.084 1.511 3.351 1.511 4.516 0 .539-.174.9-.5.9-1.024 0-1.564-2.205-1.876-3.6l-.1-.123c-.069 0-.088.07-.088.123v4.377c0 .053.019.086.088.086s.135-.07.208-.121c.348-.26.487-.383.557-.383a.98.98 0 0 1 .348.174c.28.211.621.327.972.33.643 0 1.6-.555 1.6-2.4 0-1.372-.135-1.945-1.348-4.516-1.286-2.727-1.512-3.579-1.512-4.43 0-.453.036-.817.47-.817.8 0 1.632 2.188 1.91 3.6.018.07.051.121.1.121a.1.1 0 0 0 .105-.086zm-4.988 11.083c-.452 0-.625.452-.625.886s.174.868.625.868.643-.452.643-.868-.18-.885-.645-.885zm-5.211-.123a1.84 1.84 0 0 0 2.085 1.876 1.89 1.89 0 0 0 2.022-1.876v-9.9c-.011-.172.037-.343.135-.485l.539-.5.086-.156a.1.1 0 0 0-.105-.1h-2.381a.1.1 0 0 0-.1.1l.086.156.539.5c.106.138.154.312.135.485v9.45c0 .766-.174 1.46-.817 1.46-.817 0-.886-.694-.886-1.46v-9.45c-.01-.172.037-.343.135-.485l.539-.5.088-.156a.1.1 0 0 0-.1-.1h-2.656a.1.1 0 0 0-.1.1l.086.156.539.5c.106.138.154.312.135.485z" fill="#446f80"/>
<path d="M59.568 51.661l-.066.032.057.1.22.27.089.187.716 5.463.065.048h.236l.066-.048.43-3.822h.016l.528 3.822.066.048h.236l.065-.049.6-5.463.073-.187.27-.293.032-.073-.057-.032h-1.033l-.073.032.04.081.252.252.024.147-.317 2.878h-.011l-.391-2.871.024-.135.26-.26.049-.089-.058-.032h-1.034l-.066.032.05.081.252.252.04.147-.325 2.878h-.018l-.373-2.887.04-.163.212-.236.04-.081-.065-.032zm1.661-7.716h.464a.2.2 0 0 1 .212.155l.438 1.527.066.058.04-.05v-2.023l-.065-.073h-2.106l-.049.047.057.074.243.236c.056.062.083.145.074.228v4.926c.009.083-.018.166-.074.228l-.243.236-.057.073.049.05h2.106l.065-.074v-2.044l-.04-.05-.058.05-.438 1.561c-.031.093-.122.154-.22.146h-.464v-2.471h.179l.089.057.276.593.057.058.034-.042v-1.724l-.034-.048-.049.048-.284.569-.089.057h-.179zm-.856-3.02a.35.35 0 0 1-.074.228l-.2.23-.057.081.05.04h1.078l.049-.04-.057-.081-.229-.241c-.057-.058-.087-.138-.081-.22v-4.044h.018l.95 4.43c.024.123.089.2.162.2h.342l.081-.089v-5.427c-.003-.082.023-.163.073-.228l.208-.23.057-.082-.049-.039h-1.082l-.049.039.057.082.228.244c.055.059.082.138.073.218v3.049h-.016l-.747-3.5c-.018-.081-.042-.135-.1-.135h-.975l-.05.039.057.082.2.235a.35.35 0 0 1 .074.228zm.043 50.694a.3.3 0 0 1-.073.228l-.252.228-.049.089.04.04h1.293l.04-.04-.049-.089-.252-.228a.3.3 0 0 1-.073-.228v-1.034l.291-.876h.016l.454 1.862c.029.073.02.155-.024.22l-.21.284-.065.089.049.04h1.213l.04-.04-.057-.1-.276-.27a.4.4 0 0 1-.105-.2l-.708-2.862.627-1.887a.79.79 0 0 1 .178-.333l.276-.276.065-.1-.057-.039h-1.186l-.057.039.057.09.252.212c.064.053.084.143.049.218l-.8 2.393h-.016v-2.355a.3.3 0 0 1 .073-.228l.252-.228.049-.09-.04-.039h-1.293l-.04.039.057.09.244.228a.27.27 0 0 1 .073.228zm.687-13.229h.121c.4 0 .561.27.561 1.1 0 .976-.162 1.293-.561 1.293h-.121zm0 2.8h.135c.15.016.287.092.381.209a.56.56 0 0 1 .119.418v1.747c-.013.142.037.282.138.382a.48.48 0 0 0 .382.138h.423l.081-.024-.065-.089-.26-.27-.073-.147v-1.7a1.01 1.01 0 0 0-.52-.911c.284-.178.6-.539.6-1.446 0-1.057-.439-1.5-1.285-1.5h-1.015l-.05.049.057.073.244.236a.3.3 0 0 1 .074.228v4.915a.3.3 0 0 1-.074.228l-.244.236-.057.073.05.049h1.279l.05-.049-.058-.073-.244-.236a.3.3 0 0 1-.073-.228zm.28-10.919c.244 0 .423.683.423 2.488 0 2.114-.179 2.8-.423 2.8s-.415-.682-.415-2.8c0-1.808.179-2.491.415-2.491zm0-.4c-.976 0-1.078 1.716-1.078 2.886 0 1.537.105 3.211 1.078 3.211s1.089-1.674 1.089-3.211c0-1.17-.105-2.89-1.089-2.89zm-.319-2.616a.3.3 0 0 1-.073.228l-.244.236-.058.073.05.048h1.277l.049-.048-.057-.073-.245-.236a.3.3 0 0 1-.073-.228V65.06l.588-2.732a.4.4 0 0 1 .081-.186l.27-.276.057-.089-.063-.043h-1.078l-.073.04.057.082.26.235.032.155-.383 1.8h-.015l-.365-1.8.024-.155.252-.235.057-.082-.065-.04h-1.163l-.057.034.049.089.228.276.089.186.6 2.984z" fill="#fff"/>
<path d="M45.763 55.87a10.81 10.81 0 0 0 1.047-4.314l1.339-.8.964-2.343-.377-1.047s.921-1.507.754-1.591l-3.348-1.836-1.339 2.092-1.383-1.13s-.627-4.1-1.841-4.395a1.68 1.68 0 0 1-.887-.47c.019-.554-.088-1.104-.314-1.61-.474-.927.83-1.13.791-1.887s-.376-3.382-.435-3.917c-.228-.233-.369-.537-.4-.861l.148-.241 4.028.5-3.672-1.078.34-.554 2.714-2.518-3.347 2.1c-.216-.099-.437-.185-.662-.26l1.171-3.8-2.209 3.545-.386-.049-.6-4.908-.6 4.908-.386.049-2.213-3.545 1.174 3.8a6.58 6.58 0 0 0-.661.26l-3.35-2.095 2.718 2.518.337.553-3.671 1.085 4.026-.5.054.086a16.9 16.9 0 0 0-.243 4.341c-.019.591-.151 1.174-.388 1.716a1.12 1.12 0 0 1-.2-.636c0-.879-1.13-1.171-1.13-1.171a1.26 1.26 0 0 1-.879-1.382c.042-1.173-.46-2.217-1.3-2.135-.362.063-.707.199-1.014.4-.041-.608-.148-1.209-.318-1.794-.224-.446-.391-1-.615-3.629a9.74 9.74 0 0 0-.39-2.076c.108-.277.163-.571.164-.868 0-.257.071-.073.117-.539s-.28-.539-.117-.888.088-1.105-.437-1.033l.05-.532a3.33 3.33 0 0 1 .549.27l.484-.79c.232.102.458.22.674.352q.539-.88 1.078-1.752a7.55 7.55 0 0 0-2.13-.891c.454-.47.708-1.098.709-1.752 0 0 .235-2.89-.516-3.578.27.891-.044.887-.156.422-.53-2.321-1.752-2.619-2.718-2.625 1.031.469.609 1.953-.686 3.25a2.83 2.83 0 0 0-.985 2.53c.001.654.255 1.282.709 1.752a7.55 7.55 0 0 0-2.13.891l1.078 1.752a5.63 5.63 0 0 1 .674-.352l.484.79a3.33 3.33 0 0 1 .549-.27l.031.325c-.586.4-.236 3.5.2 3.958a1.29 1.29 0 0 0 .19.167l.076.817h.4l-.077 4.021c-.2 1 .5 3.266.474 3.657.109.899.303 1.785.578 2.647-.21.762-.071 1.578.379 2.228 1.255 1.173.063 1.046.074 1.465s1.516-.461 1.266.921-.872 2.346-.2 3.3.251 2.3-.127 3.474c-.778 1.564-.591 3.435.48 4.814 1.53 2.387-.733 3.141 0 5.818s-.4 6.364-.144 6.95c.208.429.295.906.251 1.38l.167 6.488c-.252.754.962 3.348-.209 3.6s-2.638.585-2.638 1.255H25.71v2.871h1.239v10.745h-1.237v2.865h22.5v-2.868h-1.237V81.554h1.237v-2.871h-1.7c.051-1.9-3.3-.615-3.242-2.022a26.59 26.59 0 0 1 .334-5.86 19.39 19.39 0 0 0 .28-3.46l.488-.648V65.21l.167-.71L44 56.881s.754.831 1.763-1.011zm-9.661-17.938l-.294.683a6.15 6.15 0 0 1-.674-.454c.253-.254.628-.342.968-.228zm3.285 1.845a5.61 5.61 0 0 1-.082-.563 3.37 3.37 0 0 1 .555.454c-.155.048-.313.085-.473.11z" fill="#446f80"/>
</svg>
