<?xml version="1.0" encoding="UTF-8"?>
<svg viewBox="0 0 27.492 18.012" xmlns="http://www.w3.org/2000/svg" xmlns:xlink="http://www.w3.org/1999/xlink">
<path d="M25.433 0H2.059A2.06 2.06 0 0 0 0 2.059v13.894a2.06 2.06 0 0 0 2.059 2.059h23.374a2.06 2.06 0 0 0 2.059-2.059V2.059A2.06 2.06 0 0 0 25.433 0z" fill="#f5f5f5"/>
<path d="M.113 1.386h27.266A2.06 2.06 0 0 0 25.433 0H2.059A2.06 2.06 0 0 0 .113 1.386zM0 5.542h27.492v1.386H0zm0-2.771h27.492v1.386H0zm0 6.454c0 .262.212.474.474.474h27.018V8.315H0zm0 4.631h27.492v1.386H0zm27.379 2.77H.113a2.06 2.06 0 0 0 1.946 1.386h23.374a2.06 2.06 0 0 0 1.946-1.386zM0 11.085h27.492v1.386H0z" fill="#ff4b55"/>
<path d="M.474 9.699h11.85c.126.001.247-.049.336-.138s.14-.21.14-.336V.474c0-.126-.05-.246-.139-.335S12.452 0 12.326 0H2.059A2.06 2.06 0 0 0 0 2.059v7.166c0 .126.05.246.139.335s.209.139.335.139z" fill="#41479b"/>
<g fill="#f5f5f5">
<use xlink:href="#a"/>
<use y="1.644" xlink:href="#a"/>
<use y="3.29" xlink:href="#a"/>
<path d="M1.33 6.025l.1.315h.332c.019 0 .036.013.042.031s-.001.038-.016.05l-.267.2.1.316c.006.018-.001.038-.017.05s-.037.011-.052 0l-.27-.193-.27.193c-.016.011-.037.011-.052 0s-.022-.031-.017-.05l.1-.316-.267-.2C.761 6.409.754 6.39.76 6.371s.023-.031.042-.031h.332l.1-.315c0-.027.021-.048.048-.048s.048.021.048.048z"/>
<use y="6.582" xlink:href="#a"/>
<use x="1.278" y="0.806" xlink:href="#a"/>
<path d="M2.608 3.54l.1.315h.332c.019 0 .036.013.042.031s-.001.038-.016.05l-.267.2.1.316c.006.018-.001.038-.017.05s-.037.011-.052 0l-.27-.193-.27.193c-.016.011-.037.011-.052 0s-.022-.031-.017-.05l.1-.316-.267-.2c-.014-.013-.018-.033-.011-.051s.025-.028.044-.027h.332l.1-.315c.002-.022.021-.039.043-.04s.042.015.046.037z"/>
<use x="1.278" y="4.097" xlink:href="#a"/>
<use x="1.278" y="5.744" xlink:href="#a"/>
<use x="2.552" xlink:href="#a"/>
<use x="2.552" y="1.645" xlink:href="#a"/>
<use x="2.552" y="3.29" xlink:href="#a"/>
<use x="2.552" y="4.936" xlink:href="#a"/>
<use x="2.552" y="6.583" xlink:href="#a"/>
<use x="3.835" y="0.806" xlink:href="#a"/>
<use x="3.835" y="2.451" xlink:href="#a"/>
<use x="3.835" y="4.097" xlink:href="#a"/>
<use x="3.835" y="5.744" xlink:href="#a"/>
<use x="5.111" xlink:href="#a"/>
<use x="5.111" y="1.645" xlink:href="#a"/>
<use x="5.111" y="3.29" xlink:href="#a"/>
<use x="5.111" y="4.936" xlink:href="#a"/>
<use x="5.111" y="6.583" xlink:href="#a"/>
<use x="6.388" y="0.806" xlink:href="#a"/>
<use x="6.388" y="2.451" xlink:href="#a"/>
<use x="6.388" y="4.097" xlink:href="#a"/>
<use x="6.388" y="5.744" xlink:href="#a"/>
<use xlink:href="#b"/>
<use y="1.645" xlink:href="#b"/>
<use y="3.29" xlink:href="#b"/>
<use y="4.936" xlink:href="#b"/>
<use y="6.583" xlink:href="#b"/>
<use x="8.944" y="0.806" xlink:href="#a"/>
<use x="8.944" y="2.451" xlink:href="#a"/>
<use x="8.944" y="4.097" xlink:href="#a"/>
<use x="8.944" y="5.744" xlink:href="#a"/>
<use x="10.221" xlink:href="#a"/>
<use x="10.221" y="1.645" xlink:href="#a"/>
<use x="10.221" y="3.29" xlink:href="#a"/>
<use x="10.221" y="4.936" xlink:href="#a"/>
<use x="10.221" y="6.583" xlink:href="#a"/>
</g>
<defs>
<path id="a" d="M1.33 1.089l.1.315h.332c.019 0 .036.013.042.031s-.001.038-.016.05l-.267.2.1.316c.006.018-.001.038-.017.05s-.037.011-.052 0l-.27-.193-.27.193c-.016.011-.037.011-.052 0s-.022-.031-.017-.05l.1-.316-.267-.2c-.015-.012-.022-.031-.016-.05s.023-.031.042-.031h.332l.1-.315c0-.027.021-.048.048-.048s.048.021.048.048z"/>
<path id="b" d="M8.996 1.089l.1.315h.332c.019 0 .036.013.042.031s-.001.038-.016.05l-.267.2.1.316c.006.018-.001.038-.017.05s-.037.011-.052 0l-.27-.193-.27.193c-.016.011-.037.011-.052 0s-.022-.031-.017-.05l.1-.316-.267-.2c-.015-.012-.022-.031-.016-.05s.023-.031.042-.031H8.8l.1-.315c0-.027.021-.048.048-.048s.048.021.048.048z"/>
</defs>
</svg>
