<?xml version="1.0" encoding="UTF-8"?>
<svg fill="none" viewBox="0 0 514 517" xmlns="http://www.w3.org/2000/svg">
<path d="m11.766 502.27 34.647-126.69c-21.375-37.077-32.616-79.142-32.602-122.22 0.056-134.8 109.61-244.46 244.21-244.46 65.33 0.02954 126.65 25.49 172.75 71.7 46.111 46.21 71.49 107.63 71.464 172.96-0.056 134.8-109.62 244.48-244.2 244.48 7e-3 0-0.01 0 0 0h-0.109c-40.87-0.014-81.028-10.288-116.7-29.754l-129.46 33.994z" fill="url(#a)"/>
<path d="m194.84 147.42c-4.734-10.541-9.719-10.752-14.224-10.937-3.684-0.158-7.902-0.148-12.113-0.148-4.214 0-11.062 1.586-16.854 7.92-5.795 6.334-22.125 21.645-22.125 52.787 0 31.145 22.652 61.238 25.809 65.465 3.161 4.22 43.728 70.17 107.98 95.541 53.394 21.086 64.26 16.892 75.849 15.836 11.59-1.055 37.396-15.308 42.664-30.089 5.269-14.778 5.269-27.446 3.688-30.094-1.58-2.637-5.795-4.22-12.116-7.385-6.322-3.165-37.396-18.481-43.191-20.591s-10.009-3.165-14.224 3.172c-4.214 6.331-16.321 20.584-20.009 24.804-3.687 4.23-7.375 4.758-13.696 1.593-6.322-3.175-26.68-9.852-50.83-31.416-18.79-16.776-31.477-37.495-35.164-43.832-3.688-6.33-0.395-9.759 2.775-12.915 2.838-2.836 6.322-7.389 9.483-11.085 3.154-3.696 4.208-6.334 6.315-10.554 2.107-4.228 1.053-7.923-0.527-11.089-1.58-3.165-13.865-34.467-19.485-46.983z" clip-rule="evenodd" fill="#fff" fill-rule="evenodd"/>
<path d="m437.01 74.316c-47.765-47.865-111.28-74.239-178.94-74.269-139.44 0-252.92 113.6-252.97 253.23-0.01644 44.634 11.629 88.202 33.765 126.61l-35.888 131.23 134.1-35.214c36.949 20.178 78.55 30.812 120.88 30.828h0.109c139.42 0 252.91-113.62 252.97-253.24 0.024-67.67-26.267-131.3-74.025-179.17zm-178.94 389.64h-0.083c-37.735-0.02-74.74-10.165-107.02-29.344l-7.682-4.561-79.579 20.895 21.246-77.671-5.0046-7.963c-21.049-33.515-32.161-72.247-32.145-112.02 0.046-116.06 94.363-210.47 210.34-210.47 56.164 0.0232 108.95 21.946 148.65 61.729 39.698 39.784 61.543 92.67 61.527 148.92-0.05 116.06-94.37 210.49-210.26 210.49z" fill="#fff"/>
<defs>
<linearGradient id="a" x1="257" x2="257" y1="502.27" y2="8.8983" gradientUnits="userSpaceOnUse">
<stop stop-color="#20B038" offset="0"/>
<stop stop-color="#60D66A" offset="1"/>
</linearGradient>
</defs>
</svg>
