<?xml version="1.0" encoding="UTF-8"?>
<svg viewBox="0 0 30.197 30.197" xmlns="http://www.w3.org/2000/svg">
<g transform="translate(-824.39 -10704)">
<g transform="translate(824.39 10704)">
<circle transform="translate(0)" cx="15.099" cy="15.099" r="15.099" fill="red"/>
<path transform="translate(-4.564 -5.791)" d="M26.807,17.58a.232.232,0,0,0-.063-.19v-.063a1.364,1.364,0,0,0-1.327-.948h.127A42.358,42.358,0,0,0,19.73,16a43.535,43.535,0,0,0-5.813.379h.127a1.364,1.364,0,0,0-1.327.948v.063a.232.232,0,0,1-.063.19,30.712,30.712,0,0,0-.253,3.476,30.711,30.711,0,0,0,.252,3.476.232.232,0,0,0,.063.19v.063a1.364,1.364,0,0,0,1.327.948h-.127a42.358,42.358,0,0,0,5.813.379,43.536,43.536,0,0,0,5.813-.379h-.127a1.364,1.364,0,0,0,1.327-.948v-.063a.232.232,0,0,1,.063-.19,30.712,30.712,0,0,0,.252-3.476,20.565,20.565,0,0,0-.251-3.476Zm-4.929,3.791-2.97,2.149a.316.316,0,0,1-.379,0,.348.348,0,0,1-.187-.312v-4.3a.348.348,0,0,1,.19-.316.4.4,0,0,1,.379,0l2.97,2.149a.487.487,0,0,1,.127.316.231.231,0,0,1-.13.316Z" fill="#fff"/>
</g>
</g>
</svg>
